<?xml version="1.0" encoding="utf-8"?>
<!-- Generator: Adobe Illustrator 27.3.1, SVG Export Plug-In . SVG Version: 6.00 Build 0)  -->
<svg version="1.1" id="Layer_1" xmlns="http://www.w3.org/2000/svg" xmlns:xlink="http://www.w3.org/1999/xlink" x="0px" y="0px"
	 viewBox="0 0 16 16" style="enable-background:new 0 0 16 16;" xml:space="preserve">
<style type="text/css">
	.st0{fill:#3D8AF9;}
</style>
<g>
	<path class="st0" d="M1.12,15.21c0.05-0.22,0.18-0.3,0.28-0.39c1.98-1.87,3.96-3.74,5.93-5.62c0.38-0.36,0.37-0.37-0.13-0.58
		c-0.8-0.34-1.6-0.68-2.39-1.03C4.72,7.55,4.6,7.52,4.58,7.4C4.57,7.26,4.7,7.22,4.8,7.16c1.91-1.22,3.81-2.44,5.72-3.66
		c1.33-0.85,2.66-1.7,3.99-2.55c0.05-0.03,0.11-0.07,0.21-0.03c-0.43,0.56-0.98,0.98-1.46,1.47c-0.52,0.52-1.09,0.99-1.62,1.5
		C10.62,4.84,9.61,5.8,8.6,6.76C8.29,7.05,8.3,7.1,8.69,7.27c0.82,0.36,1.64,0.71,2.46,1.08c0.1,0.04,0.26,0.05,0.25,0.21
		c0,0.12-0.13,0.16-0.21,0.21c-3.2,2.06-6.4,4.11-9.59,6.17C1.45,15.03,1.31,15.1,1.12,15.21z"/>
	<path class="st0" d="M2.65,11.86c-0.8-0.87-1.3-1.9-1.46-3.07C0.65,4.83,3.31,1.48,7.3,1.06c0.23-0.02,0.38-0.13,0.52-0.31
		C8.23,0.2,8.83,0.15,9.45,0.18c0.09,0,0.17,0.04,0.17,0.13c0,0.39,0.27,0.37,0.55,0.38c0.23,0.01,0.61-0.11,0.62,0.22
		c0.01,0.4-0.4,0.23-0.62,0.24C9.69,1.19,9.64,1.22,9.65,1.67C9.66,1.92,9.75,2.03,10,2.03c0.2,0,0.39,0,0.59,0.02
		c0.13,0.01,0.23,0.08,0.22,0.23c-0.01,0.15-0.11,0.2-0.24,0.21C10.45,2.5,10.32,2.5,10.19,2.5c-0.27,0-0.55-0.03-0.56,0.37
		c0,0.1-0.09,0.16-0.19,0.16C8.79,3.06,8.18,3,7.8,2.4C7.65,2.17,7.5,2.13,7.24,2.15c-1.68,0.16-3.1,0.81-4.25,2.08
		C1.4,5.99,1.04,9.05,2.22,11.1C2.36,11.35,2.51,11.61,2.65,11.86z"/>
	<path class="st0" d="M13.37,4.11c0.48,0.45,0.79,1.03,1.03,1.64c1.59,3.93-0.96,8.42-5.15,9.09c-0.19,0.03-0.39,0.07-0.59,0.08
		c-0.24,0-0.38,0.1-0.51,0.3c-0.32,0.47-1.1,0.73-1.63,0.57c-0.1-0.03-0.18-0.08-0.18-0.18c0-0.38-0.26-0.36-0.52-0.36
		c-0.14,0-0.29,0-0.43-0.01c-0.13-0.01-0.23-0.07-0.22-0.22c0.01-0.13,0.11-0.18,0.22-0.19c0.21-0.01,0.42-0.02,0.63-0.01
		c0.36,0,0.3-0.26,0.3-0.48c0.01-0.22,0.01-0.44-0.31-0.43c-0.21,0.01-0.42,0-0.63,0c-0.12,0-0.2-0.07-0.22-0.19
		c-0.02-0.15,0.08-0.22,0.21-0.23c0.16-0.01,0.32-0.02,0.47-0.01c0.25,0.01,0.48,0,0.5-0.34c0.01-0.14,0.12-0.19,0.25-0.2
		c0.61-0.04,1.17,0.05,1.54,0.59c0.16,0.23,0.34,0.29,0.6,0.28c3.03-0.09,5.67-2.77,5.71-5.79C14.49,6.5,14.23,5.6,13.37,4.11z"/>
</g>
</svg>
